<mxfile host="app.diagrams.net" modified="2021-01-06T20:14:53.115Z" agent="5.0 (Macintosh; Intel Mac OS X 10_15_7) AppleWebKit/605.1.15 (KHTML, like Gecko) Version/14.0 Safari/605.1.15" etag="lJXCcslzWR5_3hHIhapW" version="14.1.8" type="github">
  <diagram id="C5RBs43oDa-KdzZeNtuy" name="Page-1">
    <mxGraphModel dx="2703" dy="3132" grid="1" gridSize="10" guides="1" tooltips="1" connect="1" arrows="1" fold="1" page="1" pageScale="1" pageWidth="827" pageHeight="1169" math="0" shadow="0">
      <root>
        <mxCell id="WIyWlLk6GJQsqaUBKTNV-0" />
        <mxCell id="WIyWlLk6GJQsqaUBKTNV-1" parent="WIyWlLk6GJQsqaUBKTNV-0" />
        <mxCell id="zkfFHV4jXpPFQw0GAbJ--0" value="用户基类（UserBasic）" style="swimlane;fontStyle=2;align=center;verticalAlign=top;childLayout=stackLayout;horizontal=1;startSize=26;horizontalStack=0;resizeParent=1;resizeLast=0;collapsible=1;marginBottom=0;rounded=0;shadow=0;strokeWidth=1;" parent="WIyWlLk6GJQsqaUBKTNV-1" vertex="1">
          <mxGeometry x="210" y="-250" width="340" height="326" as="geometry">
            <mxRectangle x="220" y="120" width="160" height="26" as="alternateBounds" />
          </mxGeometry>
        </mxCell>
        <mxCell id="zkfFHV4jXpPFQw0GAbJ--1" value="#ID: int" style="text;align=left;verticalAlign=top;spacingLeft=4;spacingRight=4;overflow=hidden;rotatable=0;points=[[0,0.5],[1,0.5]];portConstraint=eastwest;" parent="zkfFHV4jXpPFQw0GAbJ--0" vertex="1">
          <mxGeometry y="26" width="340" height="26" as="geometry" />
        </mxCell>
        <mxCell id="zkfFHV4jXpPFQw0GAbJ--2" value="#Name: String" style="text;align=left;verticalAlign=top;spacingLeft=4;spacingRight=4;overflow=hidden;rotatable=0;points=[[0,0.5],[1,0.5]];portConstraint=eastwest;rounded=0;shadow=0;html=0;" parent="zkfFHV4jXpPFQw0GAbJ--0" vertex="1">
          <mxGeometry y="52" width="340" height="26" as="geometry" />
        </mxCell>
        <mxCell id="zkfFHV4jXpPFQw0GAbJ--3" value="#Password: String&#xa;" style="text;align=left;verticalAlign=top;spacingLeft=4;spacingRight=4;overflow=hidden;rotatable=0;points=[[0,0.5],[1,0.5]];portConstraint=eastwest;rounded=0;shadow=0;html=0;" parent="zkfFHV4jXpPFQw0GAbJ--0" vertex="1">
          <mxGeometry y="78" width="340" height="26" as="geometry" />
        </mxCell>
        <mxCell id="-5IgXfbIaISnNNIaE_9y-21" value="#Msg_list: ArrayList&lt;MessageBasic&gt;" style="text;strokeColor=none;fillColor=none;align=left;verticalAlign=top;spacingLeft=4;spacingRight=4;overflow=hidden;rotatable=0;points=[[0,0.5],[1,0.5]];portConstraint=eastwest;" vertex="1" parent="zkfFHV4jXpPFQw0GAbJ--0">
          <mxGeometry y="104" width="340" height="26" as="geometry" />
        </mxCell>
        <mxCell id="zkfFHV4jXpPFQw0GAbJ--4" value="" style="line;html=1;strokeWidth=1;align=left;verticalAlign=middle;spacingTop=-1;spacingLeft=3;spacingRight=3;rotatable=0;labelPosition=right;points=[];portConstraint=eastwest;" parent="zkfFHV4jXpPFQw0GAbJ--0" vertex="1">
          <mxGeometry y="130" width="340" height="8" as="geometry" />
        </mxCell>
        <mxCell id="zkfFHV4jXpPFQw0GAbJ--5" value="#ChangePassword(String password): String" style="text;align=left;verticalAlign=top;spacingLeft=4;spacingRight=4;overflow=hidden;rotatable=0;points=[[0,0.5],[1,0.5]];portConstraint=eastwest;" parent="zkfFHV4jXpPFQw0GAbJ--0" vertex="1">
          <mxGeometry y="138" width="340" height="26" as="geometry" />
        </mxCell>
        <mxCell id="-5IgXfbIaISnNNIaE_9y-0" value="#ChangeName(String name): String&#xa;" style="text;align=left;verticalAlign=top;spacingLeft=4;spacingRight=4;overflow=hidden;rotatable=0;points=[[0,0.5],[1,0.5]];portConstraint=eastwest;rounded=0;shadow=0;html=0;" vertex="1" parent="zkfFHV4jXpPFQw0GAbJ--0">
          <mxGeometry y="164" width="340" height="26" as="geometry" />
        </mxCell>
        <mxCell id="-5IgXfbIaISnNNIaE_9y-30" value="#AskQuestion(String ClumnName): boolean&#xa;" style="text;align=left;verticalAlign=top;spacingLeft=4;spacingRight=4;overflow=hidden;rotatable=0;points=[[0,0.5],[1,0.5]];portConstraint=eastwest;rounded=0;shadow=0;html=0;" vertex="1" parent="zkfFHV4jXpPFQw0GAbJ--0">
          <mxGeometry y="190" width="340" height="26" as="geometry" />
        </mxCell>
        <mxCell id="-5IgXfbIaISnNNIaE_9y-31" value="#Reply(String Name): boolean" style="text;align=left;verticalAlign=top;spacingLeft=4;spacingRight=4;overflow=hidden;rotatable=0;points=[[0,0.5],[1,0.5]];portConstraint=eastwest;rounded=0;shadow=0;html=0;" vertex="1" parent="zkfFHV4jXpPFQw0GAbJ--0">
          <mxGeometry y="216" width="340" height="26" as="geometry" />
        </mxCell>
        <mxCell id="-5IgXfbIaISnNNIaE_9y-32" value="#Comment(String name): boolean&#xa;" style="text;align=left;verticalAlign=top;spacingLeft=4;spacingRight=4;overflow=hidden;rotatable=0;points=[[0,0.5],[1,0.5]];portConstraint=eastwest;rounded=0;shadow=0;html=0;" vertex="1" parent="zkfFHV4jXpPFQw0GAbJ--0">
          <mxGeometry y="242" width="340" height="28" as="geometry" />
        </mxCell>
        <mxCell id="-5IgXfbIaISnNNIaE_9y-33" value="#ReceiveMessage(String message): boolean&#xa;" style="text;align=left;verticalAlign=top;spacingLeft=4;spacingRight=4;overflow=hidden;rotatable=0;points=[[0,0.5],[1,0.5]];portConstraint=eastwest;rounded=0;shadow=0;html=0;" vertex="1" parent="zkfFHV4jXpPFQw0GAbJ--0">
          <mxGeometry y="270" width="340" height="28" as="geometry" />
        </mxCell>
        <mxCell id="-5IgXfbIaISnNNIaE_9y-34" value="#Report(MessageBasic msg): boolean&#xa;" style="text;align=left;verticalAlign=top;spacingLeft=4;spacingRight=4;overflow=hidden;rotatable=0;points=[[0,0.5],[1,0.5]];portConstraint=eastwest;rounded=0;shadow=0;html=0;" vertex="1" parent="zkfFHV4jXpPFQw0GAbJ--0">
          <mxGeometry y="298" width="340" height="28" as="geometry" />
        </mxCell>
        <mxCell id="zkfFHV4jXpPFQw0GAbJ--6" value="普通用户(User)" style="swimlane;fontStyle=0;align=center;verticalAlign=top;childLayout=stackLayout;horizontal=1;startSize=26;horizontalStack=0;resizeParent=1;resizeLast=0;collapsible=1;marginBottom=0;rounded=0;shadow=0;strokeWidth=1;" parent="WIyWlLk6GJQsqaUBKTNV-1" vertex="1">
          <mxGeometry y="310" width="250" height="90" as="geometry">
            <mxRectangle x="130" y="380" width="160" height="26" as="alternateBounds" />
          </mxGeometry>
        </mxCell>
        <mxCell id="zkfFHV4jXpPFQw0GAbJ--8" value=" " style="text;align=left;verticalAlign=top;spacingLeft=4;spacingRight=4;overflow=hidden;rotatable=0;points=[[0,0.5],[1,0.5]];portConstraint=eastwest;rounded=0;shadow=0;html=0;" parent="zkfFHV4jXpPFQw0GAbJ--6" vertex="1">
          <mxGeometry y="26" width="250" height="26" as="geometry" />
        </mxCell>
        <mxCell id="zkfFHV4jXpPFQw0GAbJ--9" value="" style="line;html=1;strokeWidth=1;align=left;verticalAlign=middle;spacingTop=-1;spacingLeft=3;spacingRight=3;rotatable=0;labelPosition=right;points=[];portConstraint=eastwest;" parent="zkfFHV4jXpPFQw0GAbJ--6" vertex="1">
          <mxGeometry y="52" width="250" height="8" as="geometry" />
        </mxCell>
        <mxCell id="zkfFHV4jXpPFQw0GAbJ--10" value="-ApplyActivity(int ActivityID): boolean" style="text;align=left;verticalAlign=top;spacingLeft=4;spacingRight=4;overflow=hidden;rotatable=0;points=[[0,0.5],[1,0.5]];portConstraint=eastwest;fontStyle=0" parent="zkfFHV4jXpPFQw0GAbJ--6" vertex="1">
          <mxGeometry y="60" width="250" height="26" as="geometry" />
        </mxCell>
        <mxCell id="zkfFHV4jXpPFQw0GAbJ--12" value="" style="endArrow=block;endSize=10;endFill=0;shadow=0;strokeWidth=1;rounded=0;edgeStyle=elbowEdgeStyle;elbow=vertical;" parent="WIyWlLk6GJQsqaUBKTNV-1" source="zkfFHV4jXpPFQw0GAbJ--6" target="zkfFHV4jXpPFQw0GAbJ--0" edge="1">
          <mxGeometry width="160" relative="1" as="geometry">
            <mxPoint x="200" y="203" as="sourcePoint" />
            <mxPoint x="200" y="203" as="targetPoint" />
            <Array as="points">
              <mxPoint x="110" y="150" />
            </Array>
          </mxGeometry>
        </mxCell>
        <mxCell id="zkfFHV4jXpPFQw0GAbJ--13" value="官方组织(Organization)" style="swimlane;fontStyle=0;align=center;verticalAlign=top;childLayout=stackLayout;horizontal=1;startSize=26;horizontalStack=0;resizeParent=1;resizeLast=0;collapsible=1;marginBottom=0;rounded=0;shadow=0;strokeWidth=1;" parent="WIyWlLk6GJQsqaUBKTNV-1" vertex="1">
          <mxGeometry x="262.5" y="310" width="235" height="142" as="geometry">
            <mxRectangle x="340" y="380" width="170" height="26" as="alternateBounds" />
          </mxGeometry>
        </mxCell>
        <mxCell id="zkfFHV4jXpPFQw0GAbJ--14" value="-Type: int" style="text;align=left;verticalAlign=top;spacingLeft=4;spacingRight=4;overflow=hidden;rotatable=0;points=[[0,0.5],[1,0.5]];portConstraint=eastwest;" parent="zkfFHV4jXpPFQw0GAbJ--13" vertex="1">
          <mxGeometry y="26" width="235" height="26" as="geometry" />
        </mxCell>
        <mxCell id="-5IgXfbIaISnNNIaE_9y-39" value="-Icon: Image" style="text;align=left;verticalAlign=top;spacingLeft=4;spacingRight=4;overflow=hidden;rotatable=0;points=[[0,0.5],[1,0.5]];portConstraint=eastwest;" vertex="1" parent="zkfFHV4jXpPFQw0GAbJ--13">
          <mxGeometry y="52" width="235" height="26" as="geometry" />
        </mxCell>
        <mxCell id="-5IgXfbIaISnNNIaE_9y-38" value="-Introduction: int" style="text;align=left;verticalAlign=top;spacingLeft=4;spacingRight=4;overflow=hidden;rotatable=0;points=[[0,0.5],[1,0.5]];portConstraint=eastwest;" vertex="1" parent="zkfFHV4jXpPFQw0GAbJ--13">
          <mxGeometry y="78" width="235" height="26" as="geometry" />
        </mxCell>
        <mxCell id="zkfFHV4jXpPFQw0GAbJ--15" value="" style="line;html=1;strokeWidth=1;align=left;verticalAlign=middle;spacingTop=-1;spacingLeft=3;spacingRight=3;rotatable=0;labelPosition=right;points=[];portConstraint=eastwest;" parent="zkfFHV4jXpPFQw0GAbJ--13" vertex="1">
          <mxGeometry y="104" width="235" height="8" as="geometry" />
        </mxCell>
        <mxCell id="-5IgXfbIaISnNNIaE_9y-35" value="-ReleaseActivity(String name): boolean" style="text;align=left;verticalAlign=top;spacingLeft=4;spacingRight=4;overflow=hidden;rotatable=0;points=[[0,0.5],[1,0.5]];portConstraint=eastwest;" vertex="1" parent="zkfFHV4jXpPFQw0GAbJ--13">
          <mxGeometry y="112" width="235" height="30" as="geometry" />
        </mxCell>
        <mxCell id="zkfFHV4jXpPFQw0GAbJ--16" value="" style="endArrow=block;endSize=10;endFill=0;shadow=0;strokeWidth=1;rounded=0;edgeStyle=elbowEdgeStyle;elbow=vertical;" parent="WIyWlLk6GJQsqaUBKTNV-1" source="zkfFHV4jXpPFQw0GAbJ--13" target="-5IgXfbIaISnNNIaE_9y-34" edge="1">
          <mxGeometry width="160" relative="1" as="geometry">
            <mxPoint x="210" y="373" as="sourcePoint" />
            <mxPoint x="380" y="290" as="targetPoint" />
          </mxGeometry>
        </mxCell>
        <mxCell id="-5IgXfbIaISnNNIaE_9y-24" value="" style="endArrow=block;endSize=10;endFill=0;shadow=0;strokeWidth=1;rounded=0;edgeStyle=elbowEdgeStyle;elbow=vertical;entryX=0.5;entryY=1;entryDx=0;entryDy=0;exitX=0.5;exitY=0;exitDx=0;exitDy=0;" edge="1" parent="WIyWlLk6GJQsqaUBKTNV-1" source="-5IgXfbIaISnNNIaE_9y-25" target="zkfFHV4jXpPFQw0GAbJ--0">
          <mxGeometry width="160" relative="1" as="geometry">
            <mxPoint x="570" y="360" as="sourcePoint" />
            <mxPoint x="414" y="306" as="targetPoint" />
            <Array as="points">
              <mxPoint x="520" y="150" />
              <mxPoint x="530" y="290" />
              <mxPoint x="500" y="333" />
            </Array>
          </mxGeometry>
        </mxCell>
        <mxCell id="-5IgXfbIaISnNNIaE_9y-25" value="管理员(Administator)" style="swimlane;fontStyle=1;align=center;verticalAlign=top;childLayout=stackLayout;horizontal=1;startSize=26;horizontalStack=0;resizeParent=1;resizeParentMax=0;resizeLast=0;collapsible=1;marginBottom=0;" vertex="1" parent="WIyWlLk6GJQsqaUBKTNV-1">
          <mxGeometry x="540" y="310" width="220" height="138" as="geometry" />
        </mxCell>
        <mxCell id="-5IgXfbIaISnNNIaE_9y-26" value=" " style="text;strokeColor=none;fillColor=none;align=left;verticalAlign=top;spacingLeft=4;spacingRight=4;overflow=hidden;rotatable=0;points=[[0,0.5],[1,0.5]];portConstraint=eastwest;" vertex="1" parent="-5IgXfbIaISnNNIaE_9y-25">
          <mxGeometry y="26" width="220" height="26" as="geometry" />
        </mxCell>
        <mxCell id="-5IgXfbIaISnNNIaE_9y-27" value="" style="line;strokeWidth=1;fillColor=none;align=left;verticalAlign=middle;spacingTop=-1;spacingLeft=3;spacingRight=3;rotatable=0;labelPosition=right;points=[];portConstraint=eastwest;" vertex="1" parent="-5IgXfbIaISnNNIaE_9y-25">
          <mxGeometry y="52" width="220" height="8" as="geometry" />
        </mxCell>
        <mxCell id="-5IgXfbIaISnNNIaE_9y-28" value="-ReviewActivity(int ActivityID): boolean" style="text;strokeColor=none;fillColor=none;align=left;verticalAlign=top;spacingLeft=4;spacingRight=4;overflow=hidden;rotatable=0;points=[[0,0.5],[1,0.5]];portConstraint=eastwest;" vertex="1" parent="-5IgXfbIaISnNNIaE_9y-25">
          <mxGeometry y="60" width="220" height="26" as="geometry" />
        </mxCell>
        <mxCell id="-5IgXfbIaISnNNIaE_9y-40" value="-DeleteMsg(String Msg): boolean" style="text;strokeColor=none;fillColor=none;align=left;verticalAlign=top;spacingLeft=4;spacingRight=4;overflow=hidden;rotatable=0;points=[[0,0.5],[1,0.5]];portConstraint=eastwest;" vertex="1" parent="-5IgXfbIaISnNNIaE_9y-25">
          <mxGeometry y="86" width="220" height="26" as="geometry" />
        </mxCell>
        <mxCell id="-5IgXfbIaISnNNIaE_9y-41" value="-RegisterCertification(): boolean" style="text;strokeColor=none;fillColor=none;align=left;verticalAlign=top;spacingLeft=4;spacingRight=4;overflow=hidden;rotatable=0;points=[[0,0.5],[1,0.5]];portConstraint=eastwest;" vertex="1" parent="-5IgXfbIaISnNNIaE_9y-25">
          <mxGeometry y="112" width="220" height="26" as="geometry" />
        </mxCell>
        <mxCell id="-5IgXfbIaISnNNIaE_9y-42" value="消息基类(MessgaeBasic)" style="swimlane;fontStyle=1;align=center;verticalAlign=top;childLayout=stackLayout;horizontal=1;startSize=26;horizontalStack=0;resizeParent=1;resizeParentMax=0;resizeLast=0;collapsible=1;marginBottom=0;" vertex="1" parent="WIyWlLk6GJQsqaUBKTNV-1">
          <mxGeometry x="1080" y="-250" width="160" height="140" as="geometry" />
        </mxCell>
        <mxCell id="-5IgXfbIaISnNNIaE_9y-43" value="#Content: String" style="text;strokeColor=none;fillColor=none;align=left;verticalAlign=top;spacingLeft=4;spacingRight=4;overflow=hidden;rotatable=0;points=[[0,0.5],[1,0.5]];portConstraint=eastwest;" vertex="1" parent="-5IgXfbIaISnNNIaE_9y-42">
          <mxGeometry y="26" width="160" height="26" as="geometry" />
        </mxCell>
        <mxCell id="-5IgXfbIaISnNNIaE_9y-58" value="-Sender: String&#xa;" style="text;strokeColor=none;fillColor=none;align=left;verticalAlign=top;spacingLeft=4;spacingRight=4;overflow=hidden;rotatable=0;points=[[0,0.5],[1,0.5]];portConstraint=eastwest;" vertex="1" parent="-5IgXfbIaISnNNIaE_9y-42">
          <mxGeometry y="52" width="160" height="26" as="geometry" />
        </mxCell>
        <mxCell id="-5IgXfbIaISnNNIaE_9y-48" value="#Time: Data" style="text;strokeColor=none;fillColor=none;align=left;verticalAlign=top;spacingLeft=4;spacingRight=4;overflow=hidden;rotatable=0;points=[[0,0.5],[1,0.5]];portConstraint=eastwest;" vertex="1" parent="-5IgXfbIaISnNNIaE_9y-42">
          <mxGeometry y="78" width="160" height="26" as="geometry" />
        </mxCell>
        <mxCell id="-5IgXfbIaISnNNIaE_9y-44" value="" style="line;strokeWidth=1;fillColor=none;align=left;verticalAlign=middle;spacingTop=-1;spacingLeft=3;spacingRight=3;rotatable=0;labelPosition=right;points=[];portConstraint=eastwest;" vertex="1" parent="-5IgXfbIaISnNNIaE_9y-42">
          <mxGeometry y="104" width="160" height="8" as="geometry" />
        </mxCell>
        <mxCell id="-5IgXfbIaISnNNIaE_9y-45" value=" " style="text;strokeColor=none;fillColor=none;align=left;verticalAlign=top;spacingLeft=4;spacingRight=4;overflow=hidden;rotatable=0;points=[[0,0.5],[1,0.5]];portConstraint=eastwest;" vertex="1" parent="-5IgXfbIaISnNNIaE_9y-42">
          <mxGeometry y="112" width="160" height="28" as="geometry" />
        </mxCell>
        <mxCell id="-5IgXfbIaISnNNIaE_9y-49" value="" style="endArrow=block;endSize=10;endFill=0;shadow=0;strokeWidth=1;rounded=0;edgeStyle=elbowEdgeStyle;elbow=vertical;exitX=0.5;exitY=0;exitDx=0;exitDy=0;" edge="1" parent="WIyWlLk6GJQsqaUBKTNV-1" source="-5IgXfbIaISnNNIaE_9y-62">
          <mxGeometry width="160" relative="1" as="geometry">
            <mxPoint x="1360" y="30" as="sourcePoint" />
            <mxPoint x="1160" y="-110" as="targetPoint" />
            <Array as="points">
              <mxPoint x="1380" y="22" />
              <mxPoint x="1350" y="65" />
            </Array>
          </mxGeometry>
        </mxCell>
        <mxCell id="-5IgXfbIaISnNNIaE_9y-50" value="" style="endArrow=block;endSize=10;endFill=0;shadow=0;strokeWidth=1;rounded=0;edgeStyle=elbowEdgeStyle;elbow=vertical;exitX=0.5;exitY=0;exitDx=0;exitDy=0;" edge="1" parent="WIyWlLk6GJQsqaUBKTNV-1" source="-5IgXfbIaISnNNIaE_9y-57" target="-5IgXfbIaISnNNIaE_9y-45">
          <mxGeometry width="160" relative="1" as="geometry">
            <mxPoint x="1160" y="70" as="sourcePoint" />
            <mxPoint x="1159" y="-109" as="targetPoint" />
            <Array as="points">
              <mxPoint x="1160" y="-100" />
              <mxPoint x="1240" y="134" />
              <mxPoint x="1210" y="177" />
            </Array>
          </mxGeometry>
        </mxCell>
        <mxCell id="-5IgXfbIaISnNNIaE_9y-51" value="" style="endArrow=block;endSize=10;endFill=0;shadow=0;strokeWidth=1;rounded=0;edgeStyle=elbowEdgeStyle;elbow=vertical;entryX=0.498;entryY=1;entryDx=0;entryDy=0;entryPerimeter=0;exitX=0.5;exitY=0;exitDx=0;exitDy=0;" edge="1" parent="WIyWlLk6GJQsqaUBKTNV-1" source="-5IgXfbIaISnNNIaE_9y-52" target="-5IgXfbIaISnNNIaE_9y-45">
          <mxGeometry width="160" relative="1" as="geometry">
            <mxPoint x="960" y="70" as="sourcePoint" />
            <mxPoint x="1160" y="-110" as="targetPoint" />
            <Array as="points">
              <mxPoint x="1190" y="22" />
              <mxPoint x="1250" y="144" />
              <mxPoint x="1220" y="187" />
            </Array>
          </mxGeometry>
        </mxCell>
        <mxCell id="-5IgXfbIaISnNNIaE_9y-52" value="评论信息(CommentMsg)" style="swimlane;fontStyle=1;align=center;verticalAlign=top;childLayout=stackLayout;horizontal=1;startSize=26;horizontalStack=0;resizeParent=1;resizeParentMax=0;resizeLast=0;collapsible=1;marginBottom=0;" vertex="1" parent="WIyWlLk6GJQsqaUBKTNV-1">
          <mxGeometry x="810" y="76" width="250" height="86" as="geometry" />
        </mxCell>
        <mxCell id="-5IgXfbIaISnNNIaE_9y-56" value="-Reply_list: ArrayList&lt;ReplyMsg&gt;" style="text;strokeColor=none;fillColor=none;align=left;verticalAlign=top;spacingLeft=4;spacingRight=4;overflow=hidden;rotatable=0;points=[[0,0.5],[1,0.5]];portConstraint=eastwest;" vertex="1" parent="-5IgXfbIaISnNNIaE_9y-52">
          <mxGeometry y="26" width="250" height="26" as="geometry" />
        </mxCell>
        <mxCell id="-5IgXfbIaISnNNIaE_9y-54" value="" style="line;strokeWidth=1;fillColor=none;align=left;verticalAlign=middle;spacingTop=-1;spacingLeft=3;spacingRight=3;rotatable=0;labelPosition=right;points=[];portConstraint=eastwest;" vertex="1" parent="-5IgXfbIaISnNNIaE_9y-52">
          <mxGeometry y="52" width="250" height="8" as="geometry" />
        </mxCell>
        <mxCell id="-5IgXfbIaISnNNIaE_9y-55" value="-AddReply(ReplyMsg msg): String" style="text;strokeColor=none;fillColor=none;align=left;verticalAlign=top;spacingLeft=4;spacingRight=4;overflow=hidden;rotatable=0;points=[[0,0.5],[1,0.5]];portConstraint=eastwest;" vertex="1" parent="-5IgXfbIaISnNNIaE_9y-52">
          <mxGeometry y="60" width="250" height="26" as="geometry" />
        </mxCell>
        <mxCell id="-5IgXfbIaISnNNIaE_9y-57" value="回复信息(ReplyMsg)" style="swimlane;fontStyle=1;align=center;verticalAlign=top;childLayout=stackLayout;horizontal=1;startSize=26;horizontalStack=0;resizeParent=1;resizeParentMax=0;resizeLast=0;collapsible=1;marginBottom=0;" vertex="1" parent="WIyWlLk6GJQsqaUBKTNV-1">
          <mxGeometry x="1080" y="76" width="160" height="86" as="geometry" />
        </mxCell>
        <mxCell id="-5IgXfbIaISnNNIaE_9y-61" value="-Receiver: String&#xa;" style="text;strokeColor=none;fillColor=none;align=left;verticalAlign=top;spacingLeft=4;spacingRight=4;overflow=hidden;rotatable=0;points=[[0,0.5],[1,0.5]];portConstraint=eastwest;" vertex="1" parent="-5IgXfbIaISnNNIaE_9y-57">
          <mxGeometry y="26" width="160" height="26" as="geometry" />
        </mxCell>
        <mxCell id="-5IgXfbIaISnNNIaE_9y-59" value="" style="line;strokeWidth=1;fillColor=none;align=left;verticalAlign=middle;spacingTop=-1;spacingLeft=3;spacingRight=3;rotatable=0;labelPosition=right;points=[];portConstraint=eastwest;" vertex="1" parent="-5IgXfbIaISnNNIaE_9y-57">
          <mxGeometry y="52" width="160" height="8" as="geometry" />
        </mxCell>
        <mxCell id="-5IgXfbIaISnNNIaE_9y-60" value=" " style="text;strokeColor=none;fillColor=none;align=left;verticalAlign=top;spacingLeft=4;spacingRight=4;overflow=hidden;rotatable=0;points=[[0,0.5],[1,0.5]];portConstraint=eastwest;" vertex="1" parent="-5IgXfbIaISnNNIaE_9y-57">
          <mxGeometry y="60" width="160" height="26" as="geometry" />
        </mxCell>
        <mxCell id="-5IgXfbIaISnNNIaE_9y-62" value="问题信息(QuestionMsg)" style="swimlane;fontStyle=1;align=center;verticalAlign=top;childLayout=stackLayout;horizontal=1;startSize=26;horizontalStack=0;resizeParent=1;resizeParentMax=0;resizeLast=0;collapsible=1;marginBottom=0;" vertex="1" parent="WIyWlLk6GJQsqaUBKTNV-1">
          <mxGeometry x="1280" y="76" width="250" height="86" as="geometry" />
        </mxCell>
        <mxCell id="-5IgXfbIaISnNNIaE_9y-67" value="-Reply_list: ArrayList&lt;ReplyMsg&gt;" style="text;strokeColor=none;fillColor=none;align=left;verticalAlign=top;spacingLeft=4;spacingRight=4;overflow=hidden;rotatable=0;points=[[0,0.5],[1,0.5]];portConstraint=eastwest;" vertex="1" parent="-5IgXfbIaISnNNIaE_9y-62">
          <mxGeometry y="26" width="250" height="26" as="geometry" />
        </mxCell>
        <mxCell id="-5IgXfbIaISnNNIaE_9y-64" value="" style="line;strokeWidth=1;fillColor=none;align=left;verticalAlign=middle;spacingTop=-1;spacingLeft=3;spacingRight=3;rotatable=0;labelPosition=right;points=[];portConstraint=eastwest;" vertex="1" parent="-5IgXfbIaISnNNIaE_9y-62">
          <mxGeometry y="52" width="250" height="8" as="geometry" />
        </mxCell>
        <mxCell id="-5IgXfbIaISnNNIaE_9y-68" value="-AddReply(ReplyMsg msg): String" style="text;strokeColor=none;fillColor=none;align=left;verticalAlign=top;spacingLeft=4;spacingRight=4;overflow=hidden;rotatable=0;points=[[0,0.5],[1,0.5]];portConstraint=eastwest;" vertex="1" parent="-5IgXfbIaISnNNIaE_9y-62">
          <mxGeometry y="60" width="250" height="26" as="geometry" />
        </mxCell>
        <mxCell id="-5IgXfbIaISnNNIaE_9y-69" value="页面(Page)" style="swimlane;fontStyle=1;align=center;verticalAlign=top;childLayout=stackLayout;horizontal=1;startSize=26;horizontalStack=0;resizeParent=1;resizeParentMax=0;resizeLast=0;collapsible=1;marginBottom=0;" vertex="1" parent="WIyWlLk6GJQsqaUBKTNV-1">
          <mxGeometry x="840" y="273" width="280" height="216" as="geometry" />
        </mxCell>
        <mxCell id="-5IgXfbIaISnNNIaE_9y-70" value="-ID: int" style="text;strokeColor=none;fillColor=none;align=left;verticalAlign=top;spacingLeft=4;spacingRight=4;overflow=hidden;rotatable=0;points=[[0,0.5],[1,0.5]];portConstraint=eastwest;" vertex="1" parent="-5IgXfbIaISnNNIaE_9y-69">
          <mxGeometry y="26" width="280" height="26" as="geometry" />
        </mxCell>
        <mxCell id="-5IgXfbIaISnNNIaE_9y-74" value="-Title: String" style="text;strokeColor=none;fillColor=none;align=left;verticalAlign=top;spacingLeft=4;spacingRight=4;overflow=hidden;rotatable=0;points=[[0,0.5],[1,0.5]];portConstraint=eastwest;" vertex="1" parent="-5IgXfbIaISnNNIaE_9y-69">
          <mxGeometry y="52" width="280" height="26" as="geometry" />
        </mxCell>
        <mxCell id="-5IgXfbIaISnNNIaE_9y-73" value="-Column_list: ArrayList&lt;Column&gt;" style="text;strokeColor=none;fillColor=none;align=left;verticalAlign=top;spacingLeft=4;spacingRight=4;overflow=hidden;rotatable=0;points=[[0,0.5],[1,0.5]];portConstraint=eastwest;" vertex="1" parent="-5IgXfbIaISnNNIaE_9y-69">
          <mxGeometry y="78" width="280" height="26" as="geometry" />
        </mxCell>
        <mxCell id="-5IgXfbIaISnNNIaE_9y-71" value="" style="line;strokeWidth=1;fillColor=none;align=left;verticalAlign=middle;spacingTop=-1;spacingLeft=3;spacingRight=3;rotatable=0;labelPosition=right;points=[];portConstraint=eastwest;" vertex="1" parent="-5IgXfbIaISnNNIaE_9y-69">
          <mxGeometry y="104" width="280" height="8" as="geometry" />
        </mxCell>
        <mxCell id="-5IgXfbIaISnNNIaE_9y-72" value="+Show(int PageID): " style="text;strokeColor=none;fillColor=none;align=left;verticalAlign=top;spacingLeft=4;spacingRight=4;overflow=hidden;rotatable=0;points=[[0,0.5],[1,0.5]];portConstraint=eastwest;" vertex="1" parent="-5IgXfbIaISnNNIaE_9y-69">
          <mxGeometry y="112" width="280" height="26" as="geometry" />
        </mxCell>
        <mxCell id="-5IgXfbIaISnNNIaE_9y-75" value="+Switch(int NextPageID): boolean" style="text;strokeColor=none;fillColor=none;align=left;verticalAlign=top;spacingLeft=4;spacingRight=4;overflow=hidden;rotatable=0;points=[[0,0.5],[1,0.5]];portConstraint=eastwest;" vertex="1" parent="-5IgXfbIaISnNNIaE_9y-69">
          <mxGeometry y="138" width="280" height="26" as="geometry" />
        </mxCell>
        <mxCell id="-5IgXfbIaISnNNIaE_9y-76" value="+Search(String thing, ArrayList&lt;Column&gt;): int" style="text;strokeColor=none;fillColor=none;align=left;verticalAlign=top;spacingLeft=4;spacingRight=4;overflow=hidden;rotatable=0;points=[[0,0.5],[1,0.5]];portConstraint=eastwest;" vertex="1" parent="-5IgXfbIaISnNNIaE_9y-69">
          <mxGeometry y="164" width="280" height="26" as="geometry" />
        </mxCell>
        <mxCell id="-5IgXfbIaISnNNIaE_9y-77" value="+Flush(): boolean" style="text;strokeColor=none;fillColor=none;align=left;verticalAlign=top;spacingLeft=4;spacingRight=4;overflow=hidden;rotatable=0;points=[[0,0.5],[1,0.5]];portConstraint=eastwest;" vertex="1" parent="-5IgXfbIaISnNNIaE_9y-69">
          <mxGeometry y="190" width="280" height="26" as="geometry" />
        </mxCell>
        <mxCell id="-5IgXfbIaISnNNIaE_9y-78" value="专栏(Column)" style="swimlane;fontStyle=1;align=center;verticalAlign=top;childLayout=stackLayout;horizontal=1;startSize=26;horizontalStack=0;resizeParent=1;resizeParentMax=0;resizeLast=0;collapsible=1;marginBottom=0;" vertex="1" parent="WIyWlLk6GJQsqaUBKTNV-1">
          <mxGeometry x="1290" y="280" width="300" height="268" as="geometry" />
        </mxCell>
        <mxCell id="-5IgXfbIaISnNNIaE_9y-79" value="-ID: int" style="text;strokeColor=none;fillColor=none;align=left;verticalAlign=top;spacingLeft=4;spacingRight=4;overflow=hidden;rotatable=0;points=[[0,0.5],[1,0.5]];portConstraint=eastwest;" vertex="1" parent="-5IgXfbIaISnNNIaE_9y-78">
          <mxGeometry y="26" width="300" height="26" as="geometry" />
        </mxCell>
        <mxCell id="-5IgXfbIaISnNNIaE_9y-82" value="-ActivityTitle: String" style="text;strokeColor=none;fillColor=none;align=left;verticalAlign=top;spacingLeft=4;spacingRight=4;overflow=hidden;rotatable=0;points=[[0,0.5],[1,0.5]];portConstraint=eastwest;" vertex="1" parent="-5IgXfbIaISnNNIaE_9y-78">
          <mxGeometry y="52" width="300" height="26" as="geometry" />
        </mxCell>
        <mxCell id="-5IgXfbIaISnNNIaE_9y-85" value="-Comment_list: ArrayList&lt;CommentMsg&gt;" style="text;strokeColor=none;fillColor=none;align=left;verticalAlign=top;spacingLeft=4;spacingRight=4;overflow=hidden;rotatable=0;points=[[0,0.5],[1,0.5]];portConstraint=eastwest;" vertex="1" parent="-5IgXfbIaISnNNIaE_9y-78">
          <mxGeometry y="78" width="300" height="26" as="geometry" />
        </mxCell>
        <mxCell id="-5IgXfbIaISnNNIaE_9y-83" value="-Question_list: ArrayList&lt;QuesyionMsg&gt;" style="text;strokeColor=none;fillColor=none;align=left;verticalAlign=top;spacingLeft=4;spacingRight=4;overflow=hidden;rotatable=0;points=[[0,0.5],[1,0.5]];portConstraint=eastwest;" vertex="1" parent="-5IgXfbIaISnNNIaE_9y-78">
          <mxGeometry y="104" width="300" height="26" as="geometry" />
        </mxCell>
        <mxCell id="-5IgXfbIaISnNNIaE_9y-86" value="-Content: String" style="text;strokeColor=none;fillColor=none;align=left;verticalAlign=top;spacingLeft=4;spacingRight=4;overflow=hidden;rotatable=0;points=[[0,0.5],[1,0.5]];portConstraint=eastwest;" vertex="1" parent="-5IgXfbIaISnNNIaE_9y-78">
          <mxGeometry y="130" width="300" height="26" as="geometry" />
        </mxCell>
        <mxCell id="-5IgXfbIaISnNNIaE_9y-84" value="-Others: String" style="text;strokeColor=none;fillColor=none;align=left;verticalAlign=top;spacingLeft=4;spacingRight=4;overflow=hidden;rotatable=0;points=[[0,0.5],[1,0.5]];portConstraint=eastwest;" vertex="1" parent="-5IgXfbIaISnNNIaE_9y-78">
          <mxGeometry y="156" width="300" height="26" as="geometry" />
        </mxCell>
        <mxCell id="-5IgXfbIaISnNNIaE_9y-80" value="" style="line;strokeWidth=1;fillColor=none;align=left;verticalAlign=middle;spacingTop=-1;spacingLeft=3;spacingRight=3;rotatable=0;labelPosition=right;points=[];portConstraint=eastwest;" vertex="1" parent="-5IgXfbIaISnNNIaE_9y-78">
          <mxGeometry y="182" width="300" height="8" as="geometry" />
        </mxCell>
        <mxCell id="-5IgXfbIaISnNNIaE_9y-81" value="+Show(int ColumnId): " style="text;strokeColor=none;fillColor=none;align=left;verticalAlign=top;spacingLeft=4;spacingRight=4;overflow=hidden;rotatable=0;points=[[0,0.5],[1,0.5]];portConstraint=eastwest;" vertex="1" parent="-5IgXfbIaISnNNIaE_9y-78">
          <mxGeometry y="190" width="300" height="26" as="geometry" />
        </mxCell>
        <mxCell id="-5IgXfbIaISnNNIaE_9y-87" value="+AddQuestion(QuestionMsg msg): boolean" style="text;strokeColor=none;fillColor=none;align=left;verticalAlign=top;spacingLeft=4;spacingRight=4;overflow=hidden;rotatable=0;points=[[0,0.5],[1,0.5]];portConstraint=eastwest;" vertex="1" parent="-5IgXfbIaISnNNIaE_9y-78">
          <mxGeometry y="216" width="300" height="26" as="geometry" />
        </mxCell>
        <mxCell id="-5IgXfbIaISnNNIaE_9y-88" value="+AddComment(CommentMsg msg): boolean" style="text;strokeColor=none;fillColor=none;align=left;verticalAlign=top;spacingLeft=4;spacingRight=4;overflow=hidden;rotatable=0;points=[[0,0.5],[1,0.5]];portConstraint=eastwest;" vertex="1" parent="-5IgXfbIaISnNNIaE_9y-78">
          <mxGeometry y="242" width="300" height="26" as="geometry" />
        </mxCell>
        <mxCell id="-5IgXfbIaISnNNIaE_9y-90" value="活动(Activity)" style="swimlane;fontStyle=1;align=center;verticalAlign=top;childLayout=stackLayout;horizontal=1;startSize=26;horizontalStack=0;resizeParent=1;resizeParentMax=0;resizeLast=0;collapsible=1;marginBottom=0;" vertex="1" parent="WIyWlLk6GJQsqaUBKTNV-1">
          <mxGeometry x="880" y="670" width="160" height="216" as="geometry" />
        </mxCell>
        <mxCell id="-5IgXfbIaISnNNIaE_9y-91" value="-ID: int" style="text;strokeColor=none;fillColor=none;align=left;verticalAlign=top;spacingLeft=4;spacingRight=4;overflow=hidden;rotatable=0;points=[[0,0.5],[1,0.5]];portConstraint=eastwest;" vertex="1" parent="-5IgXfbIaISnNNIaE_9y-90">
          <mxGeometry y="26" width="160" height="26" as="geometry" />
        </mxCell>
        <mxCell id="-5IgXfbIaISnNNIaE_9y-93" value="-Title: String" style="text;strokeColor=none;fillColor=none;align=left;verticalAlign=top;spacingLeft=4;spacingRight=4;overflow=hidden;rotatable=0;points=[[0,0.5],[1,0.5]];portConstraint=eastwest;" vertex="1" parent="-5IgXfbIaISnNNIaE_9y-90">
          <mxGeometry y="52" width="160" height="26" as="geometry" />
        </mxCell>
        <mxCell id="-5IgXfbIaISnNNIaE_9y-95" value="-Time: Date" style="text;strokeColor=none;fillColor=none;align=left;verticalAlign=top;spacingLeft=4;spacingRight=4;overflow=hidden;rotatable=0;points=[[0,0.5],[1,0.5]];portConstraint=eastwest;" vertex="1" parent="-5IgXfbIaISnNNIaE_9y-90">
          <mxGeometry y="78" width="160" height="26" as="geometry" />
        </mxCell>
        <mxCell id="-5IgXfbIaISnNNIaE_9y-96" value="-holder: Organization" style="text;strokeColor=none;fillColor=none;align=left;verticalAlign=top;spacingLeft=4;spacingRight=4;overflow=hidden;rotatable=0;points=[[0,0.5],[1,0.5]];portConstraint=eastwest;" vertex="1" parent="-5IgXfbIaISnNNIaE_9y-90">
          <mxGeometry y="104" width="160" height="26" as="geometry" />
        </mxCell>
        <mxCell id="-5IgXfbIaISnNNIaE_9y-97" value="-Type: int" style="text;strokeColor=none;fillColor=none;align=left;verticalAlign=top;spacingLeft=4;spacingRight=4;overflow=hidden;rotatable=0;points=[[0,0.5],[1,0.5]];portConstraint=eastwest;" vertex="1" parent="-5IgXfbIaISnNNIaE_9y-90">
          <mxGeometry y="130" width="160" height="26" as="geometry" />
        </mxCell>
        <mxCell id="-5IgXfbIaISnNNIaE_9y-94" value="-Content: String" style="text;strokeColor=none;fillColor=none;align=left;verticalAlign=top;spacingLeft=4;spacingRight=4;overflow=hidden;rotatable=0;points=[[0,0.5],[1,0.5]];portConstraint=eastwest;" vertex="1" parent="-5IgXfbIaISnNNIaE_9y-90">
          <mxGeometry y="156" width="160" height="26" as="geometry" />
        </mxCell>
        <mxCell id="-5IgXfbIaISnNNIaE_9y-92" value="" style="line;strokeWidth=1;fillColor=none;align=left;verticalAlign=middle;spacingTop=-1;spacingLeft=3;spacingRight=3;rotatable=0;labelPosition=right;points=[];portConstraint=eastwest;" vertex="1" parent="-5IgXfbIaISnNNIaE_9y-90">
          <mxGeometry y="182" width="160" height="8" as="geometry" />
        </mxCell>
        <mxCell id="-5IgXfbIaISnNNIaE_9y-98" value=" " style="text;strokeColor=none;fillColor=none;align=left;verticalAlign=top;spacingLeft=4;spacingRight=4;overflow=hidden;rotatable=0;points=[[0,0.5],[1,0.5]];portConstraint=eastwest;" vertex="1" parent="-5IgXfbIaISnNNIaE_9y-90">
          <mxGeometry y="190" width="160" height="26" as="geometry" />
        </mxCell>
        <mxCell id="-5IgXfbIaISnNNIaE_9y-99" value="注册请求(RegisterRequest)" style="swimlane;fontStyle=1;align=center;verticalAlign=top;childLayout=stackLayout;horizontal=1;startSize=26;horizontalStack=0;resizeParent=1;resizeParentMax=0;resizeLast=0;collapsible=1;marginBottom=0;" vertex="1" parent="WIyWlLk6GJQsqaUBKTNV-1">
          <mxGeometry x="285" y="-650" width="190" height="190" as="geometry" />
        </mxCell>
        <mxCell id="-5IgXfbIaISnNNIaE_9y-100" value="-Type: int" style="text;strokeColor=none;fillColor=none;align=left;verticalAlign=top;spacingLeft=4;spacingRight=4;overflow=hidden;rotatable=0;points=[[0,0.5],[1,0.5]];portConstraint=eastwest;" vertex="1" parent="-5IgXfbIaISnNNIaE_9y-99">
          <mxGeometry y="26" width="190" height="26" as="geometry" />
        </mxCell>
        <mxCell id="-5IgXfbIaISnNNIaE_9y-102" value="-Name: String" style="text;strokeColor=none;fillColor=none;align=left;verticalAlign=top;spacingLeft=4;spacingRight=4;overflow=hidden;rotatable=0;points=[[0,0.5],[1,0.5]];portConstraint=eastwest;" vertex="1" parent="-5IgXfbIaISnNNIaE_9y-99">
          <mxGeometry y="52" width="190" height="26" as="geometry" />
        </mxCell>
        <mxCell id="-5IgXfbIaISnNNIaE_9y-103" value="-Password: String" style="text;strokeColor=none;fillColor=none;align=left;verticalAlign=top;spacingLeft=4;spacingRight=4;overflow=hidden;rotatable=0;points=[[0,0.5],[1,0.5]];portConstraint=eastwest;" vertex="1" parent="-5IgXfbIaISnNNIaE_9y-99">
          <mxGeometry y="78" width="190" height="26" as="geometry" />
        </mxCell>
        <mxCell id="-5IgXfbIaISnNNIaE_9y-104" value="-CertificationMaterials: String" style="text;strokeColor=none;fillColor=none;align=left;verticalAlign=top;spacingLeft=4;spacingRight=4;overflow=hidden;rotatable=0;points=[[0,0.5],[1,0.5]];portConstraint=eastwest;" vertex="1" parent="-5IgXfbIaISnNNIaE_9y-99">
          <mxGeometry y="104" width="190" height="26" as="geometry" />
        </mxCell>
        <mxCell id="-5IgXfbIaISnNNIaE_9y-105" value="-Others: String" style="text;strokeColor=none;fillColor=none;align=left;verticalAlign=top;spacingLeft=4;spacingRight=4;overflow=hidden;rotatable=0;points=[[0,0.5],[1,0.5]];portConstraint=eastwest;" vertex="1" parent="-5IgXfbIaISnNNIaE_9y-99">
          <mxGeometry y="130" width="190" height="26" as="geometry" />
        </mxCell>
        <mxCell id="-5IgXfbIaISnNNIaE_9y-101" value="" style="line;strokeWidth=1;fillColor=none;align=left;verticalAlign=middle;spacingTop=-1;spacingLeft=3;spacingRight=3;rotatable=0;labelPosition=right;points=[];portConstraint=eastwest;" vertex="1" parent="-5IgXfbIaISnNNIaE_9y-99">
          <mxGeometry y="156" width="190" height="8" as="geometry" />
        </mxCell>
        <mxCell id="-5IgXfbIaISnNNIaE_9y-106" value=" " style="text;strokeColor=none;fillColor=none;align=left;verticalAlign=top;spacingLeft=4;spacingRight=4;overflow=hidden;rotatable=0;points=[[0,0.5],[1,0.5]];portConstraint=eastwest;" vertex="1" parent="-5IgXfbIaISnNNIaE_9y-99">
          <mxGeometry y="164" width="190" height="26" as="geometry" />
        </mxCell>
        <mxCell id="-5IgXfbIaISnNNIaE_9y-107" value="" style="html=1;verticalAlign=bottom;endArrow=open;dashed=1;endSize=8;exitX=1;exitY=0.5;exitDx=0;exitDy=0;entryX=0;entryY=0.5;entryDx=0;entryDy=0;" edge="1" parent="WIyWlLk6GJQsqaUBKTNV-1" source="zkfFHV4jXpPFQw0GAbJ--3" target="-5IgXfbIaISnNNIaE_9y-48">
          <mxGeometry relative="1" as="geometry">
            <mxPoint x="730" y="-130" as="sourcePoint" />
            <mxPoint x="650" y="-130" as="targetPoint" />
          </mxGeometry>
        </mxCell>
        <mxCell id="-5IgXfbIaISnNNIaE_9y-109" value="" style="html=1;verticalAlign=bottom;endArrow=open;dashed=1;endSize=8;exitX=1;exitY=0.5;exitDx=0;exitDy=0;entryX=0;entryY=0.5;entryDx=0;entryDy=0;" edge="1" parent="WIyWlLk6GJQsqaUBKTNV-1" source="-5IgXfbIaISnNNIaE_9y-56" target="-5IgXfbIaISnNNIaE_9y-61">
          <mxGeometry relative="1" as="geometry">
            <mxPoint x="1020" y="250" as="sourcePoint" />
            <mxPoint x="940" y="250" as="targetPoint" />
          </mxGeometry>
        </mxCell>
        <mxCell id="-5IgXfbIaISnNNIaE_9y-110" value="" style="html=1;verticalAlign=bottom;endArrow=open;dashed=1;endSize=8;exitX=0;exitY=0.5;exitDx=0;exitDy=0;entryX=1;entryY=0.5;entryDx=0;entryDy=0;" edge="1" parent="WIyWlLk6GJQsqaUBKTNV-1" source="-5IgXfbIaISnNNIaE_9y-67" target="-5IgXfbIaISnNNIaE_9y-61">
          <mxGeometry relative="1" as="geometry">
            <mxPoint x="1270" y="120" as="sourcePoint" />
            <mxPoint x="1240" y="120" as="targetPoint" />
          </mxGeometry>
        </mxCell>
        <mxCell id="-5IgXfbIaISnNNIaE_9y-118" value="" style="endArrow=none;html=1;exitX=0.5;exitY=0;exitDx=0;exitDy=0;entryX=0.506;entryY=0.997;entryDx=0;entryDy=0;entryPerimeter=0;" edge="1" parent="WIyWlLk6GJQsqaUBKTNV-1" source="zkfFHV4jXpPFQw0GAbJ--0" target="-5IgXfbIaISnNNIaE_9y-106">
          <mxGeometry width="50" height="50" relative="1" as="geometry">
            <mxPoint x="610" y="-220" as="sourcePoint" />
            <mxPoint x="381" y="-440" as="targetPoint" />
            <Array as="points" />
          </mxGeometry>
        </mxCell>
        <mxCell id="-5IgXfbIaISnNNIaE_9y-119" value="1..*" style="text;html=1;resizable=0;autosize=1;align=center;verticalAlign=middle;points=[];fillColor=none;strokeColor=none;rounded=0;" vertex="1" parent="WIyWlLk6GJQsqaUBKTNV-1">
          <mxGeometry x="385" y="-350" width="30" height="20" as="geometry" />
        </mxCell>
        <mxCell id="-5IgXfbIaISnNNIaE_9y-120" value="" style="endArrow=open;html=1;endSize=12;startArrow=diamondThin;startSize=14;startFill=0;edgeStyle=orthogonalEdgeStyle;align=left;verticalAlign=bottom;exitX=1;exitY=0.5;exitDx=0;exitDy=0;entryX=0;entryY=0.5;entryDx=0;entryDy=0;" edge="1" parent="WIyWlLk6GJQsqaUBKTNV-1" source="-5IgXfbIaISnNNIaE_9y-72" target="-5IgXfbIaISnNNIaE_9y-83">
          <mxGeometry x="-1" y="3" relative="1" as="geometry">
            <mxPoint x="1100" y="520" as="sourcePoint" />
            <mxPoint x="1280" y="385" as="targetPoint" />
            <Array as="points">
              <mxPoint x="1260" y="398" />
              <mxPoint x="1290" y="397" />
            </Array>
          </mxGeometry>
        </mxCell>
        <mxCell id="-5IgXfbIaISnNNIaE_9y-121" value="" style="endArrow=open;html=1;endSize=12;startArrow=diamondThin;startSize=14;startFill=1;edgeStyle=orthogonalEdgeStyle;align=left;verticalAlign=bottom;entryX=1;entryY=0.5;entryDx=0;entryDy=0;exitX=0.534;exitY=0.974;exitDx=0;exitDy=0;exitPerimeter=0;" edge="1" parent="WIyWlLk6GJQsqaUBKTNV-1" source="-5IgXfbIaISnNNIaE_9y-88" target="-5IgXfbIaISnNNIaE_9y-96">
          <mxGeometry x="-1" y="3" relative="1" as="geometry">
            <mxPoint x="1450" y="550" as="sourcePoint" />
            <mxPoint x="1410" y="790" as="targetPoint" />
            <Array as="points">
              <mxPoint x="1450" y="787" />
            </Array>
          </mxGeometry>
        </mxCell>
        <mxCell id="-5IgXfbIaISnNNIaE_9y-122" value="" style="html=1;verticalAlign=bottom;endArrow=open;dashed=1;endSize=8;exitX=0.25;exitY=0;exitDx=0;exitDy=0;entryX=0.522;entryY=1.064;entryDx=0;entryDy=0;entryPerimeter=0;" edge="1" parent="WIyWlLk6GJQsqaUBKTNV-1" source="-5IgXfbIaISnNNIaE_9y-78" target="-5IgXfbIaISnNNIaE_9y-55">
          <mxGeometry relative="1" as="geometry">
            <mxPoint x="1120" y="220" as="sourcePoint" />
            <mxPoint x="1040" y="220" as="targetPoint" />
            <Array as="points">
              <mxPoint x="1365" y="240" />
              <mxPoint x="920" y="240" />
            </Array>
          </mxGeometry>
        </mxCell>
        <mxCell id="-5IgXfbIaISnNNIaE_9y-123" value="" style="html=1;verticalAlign=bottom;endArrow=open;dashed=1;endSize=8;entryX=0.639;entryY=0.968;entryDx=0;entryDy=0;entryPerimeter=0;" edge="1" parent="WIyWlLk6GJQsqaUBKTNV-1" target="-5IgXfbIaISnNNIaE_9y-68">
          <mxGeometry relative="1" as="geometry">
            <mxPoint x="1440" y="280" as="sourcePoint" />
            <mxPoint x="1400" y="230" as="targetPoint" />
          </mxGeometry>
        </mxCell>
        <mxCell id="-5IgXfbIaISnNNIaE_9y-124" value="" style="endArrow=none;html=1;entryX=0.482;entryY=1.033;entryDx=0;entryDy=0;entryPerimeter=0;exitX=0;exitY=0.5;exitDx=0;exitDy=0;" edge="1" parent="WIyWlLk6GJQsqaUBKTNV-1" source="-5IgXfbIaISnNNIaE_9y-95" target="-5IgXfbIaISnNNIaE_9y-35">
          <mxGeometry width="50" height="50" relative="1" as="geometry">
            <mxPoint x="350" y="540" as="sourcePoint" />
            <mxPoint x="400" y="490" as="targetPoint" />
            <Array as="points">
              <mxPoint x="376" y="761" />
            </Array>
          </mxGeometry>
        </mxCell>
        <mxCell id="-5IgXfbIaISnNNIaE_9y-125" value="" style="endArrow=none;html=1;entryX=0.5;entryY=1;entryDx=0;entryDy=0;exitX=-0.012;exitY=0.812;exitDx=0;exitDy=0;exitPerimeter=0;" edge="1" parent="WIyWlLk6GJQsqaUBKTNV-1" source="-5IgXfbIaISnNNIaE_9y-94" target="zkfFHV4jXpPFQw0GAbJ--6">
          <mxGeometry width="50" height="50" relative="1" as="geometry">
            <mxPoint x="624.23" y="848.0100000000004" as="sourcePoint" />
            <mxPoint x="120" y="539.9999999999998" as="targetPoint" />
            <Array as="points">
              <mxPoint x="125" y="848" />
            </Array>
          </mxGeometry>
        </mxCell>
        <mxCell id="-5IgXfbIaISnNNIaE_9y-126" value="1..*" style="text;html=1;resizable=0;autosize=1;align=center;verticalAlign=middle;points=[];fillColor=none;strokeColor=none;rounded=0;" vertex="1" parent="WIyWlLk6GJQsqaUBKTNV-1">
          <mxGeometry x="600" y="740" width="30" height="20" as="geometry" />
        </mxCell>
        <mxCell id="-5IgXfbIaISnNNIaE_9y-127" value="1..*" style="text;html=1;resizable=0;autosize=1;align=center;verticalAlign=middle;points=[];fillColor=none;strokeColor=none;rounded=0;" vertex="1" parent="WIyWlLk6GJQsqaUBKTNV-1">
          <mxGeometry x="380" y="830" width="30" height="20" as="geometry" />
        </mxCell>
        <mxCell id="-5IgXfbIaISnNNIaE_9y-128" value="" style="endArrow=none;html=1;exitX=0;exitY=0.5;exitDx=0;exitDy=0;entryX=0.44;entryY=1.121;entryDx=0;entryDy=0;entryPerimeter=0;" edge="1" parent="WIyWlLk6GJQsqaUBKTNV-1" source="-5IgXfbIaISnNNIaE_9y-91" target="-5IgXfbIaISnNNIaE_9y-41">
          <mxGeometry width="50" height="50" relative="1" as="geometry">
            <mxPoint x="1134" y="678.01" as="sourcePoint" />
            <mxPoint x="634.77" y="470" as="targetPoint" />
            <Array as="points">
              <mxPoint x="637" y="710" />
            </Array>
          </mxGeometry>
        </mxCell>
        <mxCell id="-5IgXfbIaISnNNIaE_9y-129" value="1..*" style="text;html=1;resizable=0;autosize=1;align=center;verticalAlign=middle;points=[];fillColor=none;strokeColor=none;rounded=0;" vertex="1" parent="WIyWlLk6GJQsqaUBKTNV-1">
          <mxGeometry x="730" y="690" width="30" height="20" as="geometry" />
        </mxCell>
        <mxCell id="-5IgXfbIaISnNNIaE_9y-130" value="数据库操作管理(DataBaseManager" style="swimlane;fontStyle=1;align=center;verticalAlign=top;childLayout=stackLayout;horizontal=1;startSize=26;horizontalStack=0;resizeParent=1;resizeParentMax=0;resizeLast=0;collapsible=1;marginBottom=0;" vertex="1" parent="WIyWlLk6GJQsqaUBKTNV-1">
          <mxGeometry x="1081" y="-650" width="349" height="220" as="geometry" />
        </mxCell>
        <mxCell id="-5IgXfbIaISnNNIaE_9y-131" value=" " style="text;strokeColor=none;fillColor=none;align=left;verticalAlign=top;spacingLeft=4;spacingRight=4;overflow=hidden;rotatable=0;points=[[0,0.5],[1,0.5]];portConstraint=eastwest;" vertex="1" parent="-5IgXfbIaISnNNIaE_9y-130">
          <mxGeometry y="26" width="349" height="26" as="geometry" />
        </mxCell>
        <mxCell id="-5IgXfbIaISnNNIaE_9y-132" value="" style="line;strokeWidth=1;fillColor=none;align=left;verticalAlign=middle;spacingTop=-1;spacingLeft=3;spacingRight=3;rotatable=0;labelPosition=right;points=[];portConstraint=eastwest;" vertex="1" parent="-5IgXfbIaISnNNIaE_9y-130">
          <mxGeometry y="52" width="349" height="8" as="geometry" />
        </mxCell>
        <mxCell id="-5IgXfbIaISnNNIaE_9y-133" value="-Register(RegisterRequest Rr): boolean" style="text;strokeColor=none;fillColor=none;align=left;verticalAlign=top;spacingLeft=4;spacingRight=4;overflow=hidden;rotatable=0;points=[[0,0.5],[1,0.5]];portConstraint=eastwest;" vertex="1" parent="-5IgXfbIaISnNNIaE_9y-130">
          <mxGeometry y="60" width="349" height="26" as="geometry" />
        </mxCell>
        <mxCell id="-5IgXfbIaISnNNIaE_9y-135" value="-AskQuestion(QuestionMsg msg): boolean&#xa;" style="text;strokeColor=none;fillColor=none;align=left;verticalAlign=top;spacingLeft=4;spacingRight=4;overflow=hidden;rotatable=0;points=[[0,0.5],[1,0.5]];portConstraint=eastwest;" vertex="1" parent="-5IgXfbIaISnNNIaE_9y-130">
          <mxGeometry y="86" width="349" height="26" as="geometry" />
        </mxCell>
        <mxCell id="-5IgXfbIaISnNNIaE_9y-136" value="-Reply(Reply msg): boolean" style="text;strokeColor=none;fillColor=none;align=left;verticalAlign=top;spacingLeft=4;spacingRight=4;overflow=hidden;rotatable=0;points=[[0,0.5],[1,0.5]];portConstraint=eastwest;" vertex="1" parent="-5IgXfbIaISnNNIaE_9y-130">
          <mxGeometry y="112" width="349" height="26" as="geometry" />
        </mxCell>
        <mxCell id="-5IgXfbIaISnNNIaE_9y-137" value="-Comment(CommentMsg msg): boolean&#xa;" style="text;strokeColor=none;fillColor=none;align=left;verticalAlign=top;spacingLeft=4;spacingRight=4;overflow=hidden;rotatable=0;points=[[0,0.5],[1,0.5]];portConstraint=eastwest;" vertex="1" parent="-5IgXfbIaISnNNIaE_9y-130">
          <mxGeometry y="138" width="349" height="26" as="geometry" />
        </mxCell>
        <mxCell id="-5IgXfbIaISnNNIaE_9y-138" value="-Report(MessageBasic msg): boolean&#xa;" style="text;strokeColor=none;fillColor=none;align=left;verticalAlign=top;spacingLeft=4;spacingRight=4;overflow=hidden;rotatable=0;points=[[0,0.5],[1,0.5]];portConstraint=eastwest;" vertex="1" parent="-5IgXfbIaISnNNIaE_9y-130">
          <mxGeometry y="164" width="349" height="26" as="geometry" />
        </mxCell>
        <mxCell id="-5IgXfbIaISnNNIaE_9y-139" value="-ReleaseActivity(Activity activity): boolean" style="text;align=left;verticalAlign=top;spacingLeft=4;spacingRight=4;overflow=hidden;rotatable=0;points=[[0,0.5],[1,0.5]];portConstraint=eastwest;" vertex="1" parent="-5IgXfbIaISnNNIaE_9y-130">
          <mxGeometry y="190" width="349" height="30" as="geometry" />
        </mxCell>
        <mxCell id="-5IgXfbIaISnNNIaE_9y-140" value="" style="html=1;verticalAlign=bottom;endArrow=open;dashed=1;endSize=8;exitX=0;exitY=0.5;exitDx=0;exitDy=0;" edge="1" parent="WIyWlLk6GJQsqaUBKTNV-1" source="-5IgXfbIaISnNNIaE_9y-135">
          <mxGeometry relative="1" as="geometry">
            <mxPoint x="920" y="-540.71" as="sourcePoint" />
            <mxPoint x="476" y="-551" as="targetPoint" />
          </mxGeometry>
        </mxCell>
        <mxCell id="-5IgXfbIaISnNNIaE_9y-141" value="return" style="html=1;verticalAlign=bottom;endArrow=open;dashed=1;endSize=8;exitX=0.166;exitY=1.143;exitDx=0;exitDy=0;exitPerimeter=0;entryX=0.369;entryY=0.01;entryDx=0;entryDy=0;entryPerimeter=0;" edge="1" parent="WIyWlLk6GJQsqaUBKTNV-1" source="-5IgXfbIaISnNNIaE_9y-139" target="-5IgXfbIaISnNNIaE_9y-42">
          <mxGeometry relative="1" as="geometry">
            <mxPoint x="1200" y="-360" as="sourcePoint" />
            <mxPoint x="1139" y="-260" as="targetPoint" />
          </mxGeometry>
        </mxCell>
        <mxCell id="-5IgXfbIaISnNNIaE_9y-142" value="" style="html=1;verticalAlign=bottom;endArrow=open;dashed=1;endSize=8;exitX=0;exitY=0.5;exitDx=0;exitDy=0;entryX=0.5;entryY=0;entryDx=0;entryDy=0;" edge="1" parent="WIyWlLk6GJQsqaUBKTNV-1" source="-5IgXfbIaISnNNIaE_9y-137" target="-5IgXfbIaISnNNIaE_9y-90">
          <mxGeometry x="-0.0062" y="10" relative="1" as="geometry">
            <mxPoint x="1000" y="-490" as="sourcePoint" />
            <mxPoint x="1110" y="630" as="targetPoint" />
            <Array as="points">
              <mxPoint x="800" y="-499" />
              <mxPoint x="800" y="620" />
              <mxPoint x="960" y="620" />
            </Array>
            <mxPoint as="offset" />
          </mxGeometry>
        </mxCell>
      </root>
    </mxGraphModel>
  </diagram>
</mxfile>
